<svg width="446.5" height="75.2" viewBox="0 0 446.5 75.2" xmlns="http://www.w3.org/2000/svg"><g id="svgGroup" stroke-linecap="round" fill-rule="evenodd" font-size="9pt" stroke="#000" stroke-width="0.25mm" fill="none" style="stroke:#000;stroke-width:0.25mm;fill:none"><path d="M 411.8 0 L 411.8 30.3 Q 414.6 26.2 418.85 23.5 A 17.126 17.126 0 0 1 425.39 21.077 A 22.699 22.699 0 0 1 429 20.8 A 23.225 23.225 0 0 1 434.065 21.318 Q 439.159 22.456 442.15 26.1 Q 446.275 31.126 446.488 39.209 A 33.764 33.764 0 0 1 446.5 40.1 L 446.5 74 L 437.5 74 L 437.5 41.1 Q 437.5 36.803 436.051 33.841 A 10.747 10.747 0 0 0 434.95 32.05 Q 432.4 28.7 427.6 28.7 Q 425.3 28.7 423.05 29.55 Q 420.8 30.4 418.8 31.9 A 26.152 26.152 0 0 0 415.51 34.847 A 29.423 29.423 0 0 0 415 35.4 Q 413.2 37.4 411.8 39.6 L 411.8 74 L 402.8 74 L 402.8 0 L 411.8 0 Z M 210.8 59.1 L 202.5 59.1 L 202.5 74 L 193.5 74 L 193.5 59.1 L 163.6 59.1 L 163.6 51.9 L 184.5 3.3 L 192.3 6.6 L 173.4 50.9 L 193.5 50.9 L 193.5 31 L 202.5 31 L 202.5 50.9 L 210.8 50.9 L 210.8 59.1 Z M 84.7 22 L 84.7 30.7 Q 87.5 26.5 91.85 23.65 A 17.316 17.316 0 0 1 98.956 21.025 A 22.629 22.629 0 0 1 102.2 20.8 A 23.225 23.225 0 0 1 107.265 21.318 Q 112.359 22.456 115.35 26.1 Q 119.475 31.126 119.688 39.209 A 33.764 33.764 0 0 1 119.7 40.1 L 119.7 74 L 110.7 74 L 110.7 41.1 Q 110.7 36.744 109.182 33.761 A 10.688 10.688 0 0 0 108.1 32.05 A 8.461 8.461 0 0 0 102.155 28.783 A 12.388 12.388 0 0 0 100.7 28.7 Q 98.4 28.7 96.2 29.55 A 18.175 18.175 0 0 0 92.497 31.513 A 20.625 20.625 0 0 0 91.95 31.9 Q 89.9 33.4 88.15 35.4 Q 86.4 37.4 85 39.6 L 85 74 L 76 74 L 76 22 L 84.7 22 Z M 248.2 12.4 L 248.2 4 L 300.7 4 L 300.7 12.4 L 279.2 12.4 L 279.2 74 L 269.7 74 L 269.7 12.4 L 248.2 12.4 Z M 343.3 51.7 L 306.9 51.7 A 24.088 24.088 0 0 0 308.039 56.725 Q 309.375 60.538 312 63.1 Q 316.2 67.2 323.1 67.2 Q 327.6 67.2 331.2 66.25 Q 334.8 65.3 338.1 63.8 L 340.2 71.5 A 35.406 35.406 0 0 1 335.381 73.342 A 44.267 44.267 0 0 1 332.1 74.2 A 40.711 40.711 0 0 1 327.008 74.98 A 54.607 54.607 0 0 1 322 75.2 A 29.178 29.178 0 0 1 316.204 74.647 A 23.608 23.608 0 0 1 311.9 73.35 Q 307.4 71.5 304.25 68.05 A 22.127 22.127 0 0 1 300.604 62.55 A 27.574 27.574 0 0 1 299.4 59.55 A 31.581 31.581 0 0 1 298.049 53.593 A 42.813 42.813 0 0 1 297.7 48 A 34.878 34.878 0 0 1 298.504 40.403 A 30.597 30.597 0 0 1 299.4 37.2 A 27.699 27.699 0 0 1 302.214 31.251 A 24.152 24.152 0 0 1 304.2 28.55 Q 307.3 24.9 311.6 22.85 Q 315.9 20.8 321.2 20.8 A 27.908 27.908 0 0 1 326.104 21.211 A 20.619 20.619 0 0 1 331 22.7 Q 335.2 24.6 338 27.9 Q 340.8 31.2 342.2 35.6 A 30.348 30.348 0 0 1 343.597 44.442 A 34.055 34.055 0 0 1 343.6 44.9 A 75.204 75.204 0 0 1 343.309 51.597 A 69.426 69.426 0 0 1 343.3 51.7 Z M 391.5 23.9 L 388.8 31.5 A 35.532 35.532 0 0 0 386.169 30.352 Q 384.818 29.83 383.566 29.494 A 21.586 21.586 0 0 0 383.4 29.45 Q 380.9 28.8 377.8 28.8 Q 374.3 28.8 371.25 30.1 Q 368.2 31.4 366 33.85 A 16.788 16.788 0 0 0 363.328 37.914 A 20.581 20.581 0 0 0 362.55 39.8 A 20.918 20.918 0 0 0 361.539 44.054 A 28.088 28.088 0 0 0 361.3 47.8 A 25.667 25.667 0 0 0 361.784 52.865 A 21.996 21.996 0 0 0 362.45 55.4 A 20.488 20.488 0 0 0 364.537 59.902 A 18.248 18.248 0 0 0 365.7 61.55 Q 367.8 64.2 370.7 65.7 Q 373.6 67.2 377.2 67.2 Q 381 67.2 383.7 66.4 A 25.095 25.095 0 0 0 386.477 65.385 Q 387.847 64.796 389.305 64.006 A 41.473 41.473 0 0 0 389.5 63.9 L 392.3 71.5 Q 389.1 73.2 385.3 74.2 Q 381.619 75.169 376.905 75.199 A 47.525 47.525 0 0 1 376.6 75.2 A 26.988 26.988 0 0 1 370.687 74.576 A 22.271 22.271 0 0 1 366.5 73.2 Q 362 71.2 358.8 67.6 A 24.641 24.641 0 0 1 354.621 60.973 A 29.254 29.254 0 0 1 353.85 59 A 31.204 31.204 0 0 1 352.271 51.652 A 38.153 38.153 0 0 1 352.1 48 A 31.882 31.882 0 0 1 353.34 39.032 A 29.616 29.616 0 0 1 353.85 37.45 A 25.969 25.969 0 0 1 358.099 29.745 A 24.654 24.654 0 0 1 358.9 28.8 Q 362.2 25.1 366.85 22.95 A 23.318 23.318 0 0 1 374.128 20.97 A 28.889 28.889 0 0 1 377.3 20.8 A 42.637 42.637 0 0 1 380.883 20.942 Q 383.192 21.137 385.1 21.6 Q 388.4 22.4 391.5 23.9 Z M 25.5 51.9 L 25.5 4 L 35 4 L 35 50.9 Q 35 57.3 33.6 61.9 A 24.005 24.005 0 0 1 32.085 65.73 A 17.54 17.54 0 0 1 29.6 69.45 Q 27 72.4 23.4 73.8 A 20.59 20.59 0 0 1 18.072 75.063 A 25.479 25.479 0 0 1 15.4 75.2 A 23.443 23.443 0 0 1 7.322 73.817 A 22.405 22.405 0 0 1 6.75 73.6 A 22.827 22.827 0 0 1 2.828 71.618 A 18.183 18.183 0 0 1 0 69.4 L 4.6 62.1 A 16.858 16.858 0 0 0 8.67 65.216 A 19.43 19.43 0 0 0 9.4 65.6 A 13.114 13.114 0 0 0 13.275 66.86 A 11.941 11.941 0 0 0 15.1 67 A 10.924 10.924 0 0 0 18.545 66.481 A 8.933 8.933 0 0 0 22.7 63.6 A 9.628 9.628 0 0 0 24.236 60.841 Q 25.5 57.477 25.5 51.9 Z M 60 22 L 60 74 L 51 74 L 51 22 L 60 22 Z M 306.8 44.4 L 335.3 44.4 A 24.355 24.355 0 0 0 334.896 39.815 Q 334.4 37.231 333.296 35.207 A 12.422 12.422 0 0 0 331.5 32.7 A 12.488 12.488 0 0 0 324.539 28.924 A 18.395 18.395 0 0 0 321 28.6 Q 315.1 28.6 311.35 32.6 A 14.739 14.739 0 0 0 308.557 37.005 Q 307.732 38.961 307.252 41.361 A 32.287 32.287 0 0 0 306.8 44.4 Z M 51.108 11.307 A 6.059 6.059 0 0 0 55.5 13.1 A 8.264 8.264 0 0 0 57.156 12.942 A 5.661 5.661 0 0 0 60.1 11.4 A 5.588 5.588 0 0 0 61.571 8.768 A 7.987 7.987 0 0 0 61.8 6.8 A 7.26 7.26 0 0 0 61.8 6.719 A 6.06 6.06 0 0 0 59.95 2.35 A 7.395 7.395 0 0 0 59.892 2.293 A 6.059 6.059 0 0 0 55.5 0.5 A 8.264 8.264 0 0 0 53.844 0.658 A 5.661 5.661 0 0 0 50.9 2.2 A 5.588 5.588 0 0 0 49.429 4.832 A 7.987 7.987 0 0 0 49.2 6.8 A 7.26 7.26 0 0 0 49.2 6.881 A 6.06 6.06 0 0 0 51.05 11.25 A 7.395 7.395 0 0 0 51.108 11.307 Z" vector-effect="non-scaling-stroke"/></g></svg>
