<svg width="883.8" height="97.2" viewBox="0 0 883.8 97.2" xmlns="http://www.w3.org/2000/svg"><g id="svgGroup" stroke-linecap="round" fill-rule="evenodd" font-size="9pt" stroke="#000" stroke-width="0.25mm" fill="none" style="stroke:#000;stroke-width:0.25mm;fill:none"><path d="M 472 74 L 453 6.3 L 462.4 3.3 L 478.2 63.9 L 493.1 11.3 L 505 11.3 L 519.8 63.9 L 535.5 3.6 L 544.3 6.3 L 525.4 74 L 513.6 74 L 498.8 21.4 L 483.8 74 L 472 74 Z M 70.5 0 L 70.5 30.3 Q 73.3 26.2 77.55 23.5 A 17.126 17.126 0 0 1 84.09 21.077 A 22.699 22.699 0 0 1 87.7 20.8 A 23.225 23.225 0 0 1 92.765 21.318 Q 97.859 22.456 100.85 26.1 Q 104.975 31.126 105.188 39.209 A 33.764 33.764 0 0 1 105.2 40.1 L 105.2 74 L 96.2 74 L 96.2 41.1 Q 96.2 36.803 94.751 33.841 A 10.747 10.747 0 0 0 93.65 32.05 Q 91.1 28.7 86.3 28.7 Q 84 28.7 81.75 29.55 Q 79.5 30.4 77.5 31.9 A 26.152 26.152 0 0 0 74.21 34.847 A 29.423 29.423 0 0 0 73.7 35.4 Q 71.9 37.4 70.5 39.6 L 70.5 74 L 61.5 74 L 61.5 0 L 70.5 0 Z M 706.4 0 L 706.4 30.3 Q 709.2 26.2 713.45 23.5 A 17.126 17.126 0 0 1 719.99 21.077 A 22.699 22.699 0 0 1 723.6 20.8 A 23.225 23.225 0 0 1 728.665 21.318 Q 733.759 22.456 736.75 26.1 Q 740.875 31.126 741.088 39.209 A 33.764 33.764 0 0 1 741.1 40.1 L 741.1 74 L 732.1 74 L 732.1 41.1 Q 732.1 36.803 730.651 33.841 A 10.747 10.747 0 0 0 729.55 32.05 Q 727 28.7 722.2 28.7 Q 719.9 28.7 717.65 29.55 Q 715.4 30.4 713.4 31.9 A 26.152 26.152 0 0 0 710.11 34.847 A 29.423 29.423 0 0 0 709.6 35.4 Q 707.8 37.4 706.4 39.6 L 706.4 74 L 697.4 74 L 697.4 0 L 706.4 0 Z M 241.6 74 L 241.6 0 L 250.6 0 L 250.6 42.3 L 274.1 21 L 279.3 26.7 L 259.2 44.5 L 283.7 69 L 277.5 75 L 250.6 47.3 L 250.6 74 L 241.6 74 Z M 875.6 26 L 875.6 22 L 883.8 22 L 883.8 72.8 Q 883.8 78.32 882.574 82.47 A 22.586 22.586 0 0 1 882.1 83.9 A 21.35 21.35 0 0 1 879.885 88.322 A 17.582 17.582 0 0 1 877.25 91.45 A 19.353 19.353 0 0 1 870.38 95.572 A 22.566 22.566 0 0 1 869.7 95.8 Q 865.3 97.2 859.9 97.2 A 36.362 36.362 0 0 1 851.439 96.233 A 33.912 33.912 0 0 1 850.9 96.1 A 27.017 27.017 0 0 1 845.413 94.068 A 23.77 23.77 0 0 1 843.2 92.8 L 846.5 85 A 20.562 20.562 0 0 0 850.317 87.373 A 24.737 24.737 0 0 0 852.1 88.15 Q 854.859 89.228 858.659 89.376 A 31.788 31.788 0 0 0 859.9 89.4 Q 865.671 89.4 869.427 86.955 A 12.558 12.558 0 0 0 871.05 85.7 A 11.104 11.104 0 0 0 873.923 81.312 Q 874.604 79.498 874.891 77.237 A 28.132 28.132 0 0 0 875.1 73.7 L 875.1 67.3 Q 873.1 69.7 869.35 71.85 Q 865.6 74 860.4 74 Q 856 74 851.8 72.25 Q 847.6 70.5 844.4 67.15 A 24.167 24.167 0 0 1 840.446 61.559 A 29.583 29.583 0 0 1 839.25 58.95 A 26.411 26.411 0 0 1 837.647 52.858 A 35.337 35.337 0 0 1 837.3 47.8 Q 837.3 42 839.2 37.05 A 28.296 28.296 0 0 1 842.451 30.882 A 25.07 25.07 0 0 1 844.35 28.5 Q 847.6 24.9 852 22.85 Q 856.4 20.8 861.4 20.8 A 23.149 23.149 0 0 1 865.788 21.199 A 18.269 18.269 0 0 1 869.45 22.3 A 25.597 25.597 0 0 1 873.424 24.388 A 21.326 21.326 0 0 1 875.6 26 Z M 415.1 59.1 L 406.8 59.1 L 406.8 74 L 397.8 74 L 397.8 59.1 L 367.9 59.1 L 367.9 51.9 L 388.8 3.3 L 396.6 6.6 L 377.7 50.9 L 397.8 50.9 L 397.8 31 L 406.8 31 L 406.8 50.9 L 415.1 50.9 L 415.1 59.1 Z M 191.1 22 L 191.1 30.7 Q 193.9 26.5 198.25 23.65 A 17.316 17.316 0 0 1 205.356 21.025 A 22.629 22.629 0 0 1 208.6 20.8 A 23.225 23.225 0 0 1 213.665 21.318 Q 218.759 22.456 221.75 26.1 Q 225.875 31.126 226.088 39.209 A 33.764 33.764 0 0 1 226.1 40.1 L 226.1 74 L 217.1 74 L 217.1 41.1 Q 217.1 36.744 215.582 33.761 A 10.688 10.688 0 0 0 214.5 32.05 A 8.461 8.461 0 0 0 208.555 28.783 A 12.388 12.388 0 0 0 207.1 28.7 Q 204.8 28.7 202.6 29.55 A 18.175 18.175 0 0 0 198.897 31.513 A 20.625 20.625 0 0 0 198.35 31.9 Q 196.3 33.4 194.55 35.4 Q 192.8 37.4 191.4 39.6 L 191.4 74 L 182.4 74 L 182.4 22 L 191.1 22 Z M 790.3 22 L 790.3 30.7 Q 793.1 26.5 797.45 23.65 A 17.316 17.316 0 0 1 804.556 21.025 A 22.629 22.629 0 0 1 807.8 20.8 A 23.225 23.225 0 0 1 812.865 21.318 Q 817.959 22.456 820.95 26.1 Q 825.075 31.126 825.288 39.209 A 33.764 33.764 0 0 1 825.3 40.1 L 825.3 74 L 816.3 74 L 816.3 41.1 Q 816.3 36.744 814.782 33.761 A 10.688 10.688 0 0 0 813.7 32.05 A 8.461 8.461 0 0 0 807.755 28.783 A 12.388 12.388 0 0 0 806.3 28.7 Q 804 28.7 801.8 29.55 A 18.175 18.175 0 0 0 798.097 31.513 A 20.625 20.625 0 0 0 797.55 31.9 Q 795.5 33.4 793.75 35.4 Q 792 37.4 790.6 39.6 L 790.6 74 L 781.6 74 L 781.6 22 L 790.3 22 Z M 288.2 69.8 L 292 62.3 A 17.402 17.402 0 0 0 295.352 64.603 A 23.322 23.322 0 0 0 298.55 66 A 24.791 24.791 0 0 0 306.022 67.383 A 28.367 28.367 0 0 0 307 67.4 Q 312.392 67.4 315.235 65.685 A 7.738 7.738 0 0 0 315.45 65.55 Q 318.3 63.7 318.3 60.8 A 7.211 7.211 0 0 0 317.916 58.432 A 6.796 6.796 0 0 0 317.75 58 A 5.377 5.377 0 0 0 317.037 56.803 Q 316.649 56.304 316.119 55.821 A 10.185 10.185 0 0 0 315.75 55.5 A 12.59 12.59 0 0 0 314.515 54.607 Q 313.831 54.169 313.002 53.737 A 27.422 27.422 0 0 0 311.8 53.15 Q 310.12 52.377 307.764 51.492 A 115.589 115.589 0 0 0 305.3 50.6 A 47.106 47.106 0 0 1 301.046 48.945 Q 296.775 47.022 294.3 44.65 A 11.347 11.347 0 0 1 291.069 38.736 A 16.941 16.941 0 0 1 290.7 35.1 Q 290.7 32.1 292.05 29.5 A 13.242 13.242 0 0 1 295.036 25.704 A 15.791 15.791 0 0 1 295.95 24.95 A 17.33 17.33 0 0 1 299.366 22.934 A 22.664 22.664 0 0 1 302.15 21.9 A 24.963 24.963 0 0 1 306.292 21.046 A 34.316 34.316 0 0 1 310.5 20.8 Q 315.152 20.8 318.764 21.674 A 24.48 24.48 0 0 1 319.45 21.85 A 38.541 38.541 0 0 1 323.757 23.291 A 31.513 31.513 0 0 1 326.4 24.5 L 323.9 31.9 Q 321.2 30.3 317.75 29.3 A 25.024 25.024 0 0 0 313.267 28.453 A 31.837 31.837 0 0 0 310.1 28.3 A 20.632 20.632 0 0 0 307.163 28.495 Q 304.077 28.94 302.2 30.4 A 9.322 9.322 0 0 0 300.842 31.673 Q 300.14 32.492 299.805 33.365 A 4.529 4.529 0 0 0 299.5 35 A 5.568 5.568 0 0 0 299.694 36.488 A 4.93 4.93 0 0 0 299.95 37.2 Q 300.324 38.032 301.217 38.794 A 7.753 7.753 0 0 0 301.6 39.1 Q 302.8 40 304.8 40.9 A 38.11 38.11 0 0 0 306.441 41.589 Q 307.925 42.175 309.8 42.8 Q 313.552 44.102 316.424 45.432 A 45.049 45.049 0 0 1 318.1 46.25 A 27.212 27.212 0 0 1 320.815 47.841 Q 322.115 48.713 323.141 49.659 A 15.68 15.68 0 0 1 323.6 50.1 A 13.836 13.836 0 0 1 325.538 52.502 A 11.394 11.394 0 0 1 326.6 54.65 A 14.613 14.613 0 0 1 327.394 58.102 A 18.255 18.255 0 0 1 327.5 60.1 A 14.031 14.031 0 0 1 326.971 64.009 A 12.235 12.235 0 0 1 326 66.4 Q 324.5 69.2 321.8 71.15 A 17.953 17.953 0 0 1 318.294 73.104 A 23.774 23.774 0 0 1 315.25 74.15 Q 311.4 75.2 306.7 75.2 A 41.103 41.103 0 0 1 301.193 74.848 A 30.514 30.514 0 0 1 296 73.7 A 30.72 30.72 0 0 1 292.194 72.215 Q 290.225 71.283 288.644 70.133 A 18.536 18.536 0 0 1 288.2 69.8 Z M 0 12.4 L 0 4 L 52.5 4 L 52.5 12.4 L 31 12.4 L 31 74 L 21.5 74 L 21.5 12.4 L 0 12.4 Z M 614.7 23.9 L 616.6 7.5 L 623.5 7.5 L 623.5 23.9 L 637.9 23.9 L 637.9 31.7 L 623.5 31.7 L 623.5 56.8 A 21.675 21.675 0 0 0 623.591 58.848 Q 623.687 59.849 623.881 60.713 A 11.029 11.029 0 0 0 624.15 61.7 Q 624.8 63.7 625.9 64.9 Q 627 66.1 628.55 66.65 Q 630.1 67.2 631.8 67.2 A 13.893 13.893 0 0 0 635.664 66.672 A 12.868 12.868 0 0 0 636.5 66.4 Q 638.7 65.6 640.7 64.5 L 643.2 71.7 A 18.546 18.546 0 0 1 641.582 72.556 Q 640.78 72.935 639.834 73.308 A 43.365 43.365 0 0 1 637.8 74.05 Q 634.4 75.2 630.7 75.2 A 18.502 18.502 0 0 1 625.518 74.511 A 13.951 13.951 0 0 1 618.85 70.3 A 15.787 15.787 0 0 1 615.674 64.576 Q 614.904 62.184 614.639 59.281 A 35.038 35.038 0 0 1 614.5 56.1 L 614.5 31.7 L 605.5 31.7 L 605.5 23.9 L 614.7 23.9 Z M 686.1 23.9 L 683.4 31.5 A 35.532 35.532 0 0 0 680.769 30.352 Q 679.418 29.83 678.166 29.494 A 21.586 21.586 0 0 0 678 29.45 Q 675.5 28.8 672.4 28.8 Q 668.9 28.8 665.85 30.1 Q 662.8 31.4 660.6 33.85 A 16.788 16.788 0 0 0 657.928 37.914 A 20.581 20.581 0 0 0 657.15 39.8 A 20.918 20.918 0 0 0 656.139 44.054 A 28.088 28.088 0 0 0 655.9 47.8 A 25.667 25.667 0 0 0 656.384 52.865 A 21.996 21.996 0 0 0 657.05 55.4 A 20.488 20.488 0 0 0 659.137 59.902 A 18.248 18.248 0 0 0 660.3 61.55 Q 662.4 64.2 665.3 65.7 Q 668.2 67.2 671.8 67.2 Q 675.6 67.2 678.3 66.4 A 25.095 25.095 0 0 0 681.077 65.385 Q 682.447 64.796 683.905 64.006 A 41.473 41.473 0 0 0 684.1 63.9 L 686.9 71.5 Q 683.7 73.2 679.9 74.2 Q 676.219 75.169 671.505 75.199 A 47.525 47.525 0 0 1 671.2 75.2 A 26.988 26.988 0 0 1 665.287 74.576 A 22.271 22.271 0 0 1 661.1 73.2 Q 656.6 71.2 653.4 67.6 A 24.641 24.641 0 0 1 649.221 60.973 A 29.254 29.254 0 0 1 648.45 59 A 31.204 31.204 0 0 1 646.871 51.652 A 38.153 38.153 0 0 1 646.7 48 A 31.882 31.882 0 0 1 647.94 39.032 A 29.616 29.616 0 0 1 648.45 37.45 A 25.969 25.969 0 0 1 652.699 29.745 A 24.654 24.654 0 0 1 653.5 28.8 Q 656.8 25.1 661.45 22.95 A 23.318 23.318 0 0 1 668.728 20.97 A 28.889 28.889 0 0 1 671.9 20.8 A 42.637 42.637 0 0 1 675.483 20.942 Q 677.792 21.137 679.7 21.6 Q 683 22.4 686.1 23.9 Z M 156.3 26.2 L 156.3 22 L 164.5 22 L 164.5 61.4 A 12.15 12.15 0 0 0 164.602 63.036 Q 164.934 65.47 166.35 66.35 Q 168.2 67.5 170.4 67.5 L 168.5 74.5 A 17.722 17.722 0 0 1 164.235 74.028 Q 158.598 72.628 157.003 67.08 A 13.59 13.59 0 0 1 156.9 66.7 Q 155.7 68.3 154.15 69.85 A 18.204 18.204 0 0 1 150.856 72.444 A 20.291 20.291 0 0 1 150.6 72.6 A 17.462 17.462 0 0 1 147.467 74.067 A 20.704 20.704 0 0 1 146.1 74.5 A 18.765 18.765 0 0 1 142.78 75.102 A 23.457 23.457 0 0 1 140.6 75.2 Q 135.7 75.2 131.45 73.3 Q 127.2 71.4 124.05 67.9 A 24.891 24.891 0 0 1 120.193 62.12 A 30.206 30.206 0 0 1 119.05 59.45 Q 117.2 54.5 117.2 48.3 Q 117.2 42.5 119 37.45 A 27.784 27.784 0 0 1 122.16 31.144 A 24.797 24.797 0 0 1 124.05 28.7 Q 127.3 25 131.85 22.9 A 23.124 23.124 0 0 1 140.629 20.825 A 27.082 27.082 0 0 1 141.8 20.8 A 22.584 22.584 0 0 1 146.594 21.29 A 18.703 18.703 0 0 1 149.95 22.35 A 26.002 26.002 0 0 1 154.237 24.644 A 22.103 22.103 0 0 1 156.3 26.2 Z M 586.4 26.2 L 586.4 22 L 594.6 22 L 594.6 61.4 A 12.15 12.15 0 0 0 594.702 63.036 Q 595.034 65.47 596.45 66.35 Q 598.3 67.5 600.5 67.5 L 598.6 74.5 A 17.722 17.722 0 0 1 594.335 74.028 Q 588.698 72.628 587.103 67.08 A 13.59 13.59 0 0 1 587 66.7 Q 585.8 68.3 584.25 69.85 A 18.204 18.204 0 0 1 580.956 72.444 A 20.291 20.291 0 0 1 580.7 72.6 A 17.462 17.462 0 0 1 577.567 74.067 A 20.704 20.704 0 0 1 576.2 74.5 A 18.765 18.765 0 0 1 572.88 75.102 A 23.457 23.457 0 0 1 570.7 75.2 Q 565.8 75.2 561.55 73.3 Q 557.3 71.4 554.15 67.9 A 24.891 24.891 0 0 1 550.293 62.12 A 30.206 30.206 0 0 1 549.15 59.45 Q 547.3 54.5 547.3 48.3 Q 547.3 42.5 549.1 37.45 A 27.784 27.784 0 0 1 552.26 31.144 A 24.797 24.797 0 0 1 554.15 28.7 Q 557.4 25 561.95 22.9 A 23.124 23.124 0 0 1 570.729 20.825 A 27.082 27.082 0 0 1 571.9 20.8 A 22.584 22.584 0 0 1 576.694 21.29 A 18.703 18.703 0 0 1 580.05 22.35 A 26.002 26.002 0 0 1 584.337 24.644 A 22.103 22.103 0 0 1 586.4 26.2 Z M 765.6 22 L 765.6 74 L 756.6 74 L 756.6 22 L 765.6 22 Z M 155.5 60.7 L 155.5 32.8 Q 152.8 30.9 149.55 29.75 Q 146.3 28.6 142.7 28.6 A 16.142 16.142 0 0 0 138.233 29.203 A 14.448 14.448 0 0 0 136.1 30 Q 133.1 31.4 130.95 33.95 A 17.393 17.393 0 0 0 128.443 37.953 A 21.502 21.502 0 0 0 127.6 40.1 A 23.426 23.426 0 0 0 126.517 45.381 A 28.621 28.621 0 0 0 126.4 48 A 25.723 25.723 0 0 0 126.869 52.996 A 21.781 21.781 0 0 0 127.6 55.75 A 19.283 19.283 0 0 0 129.476 59.774 A 16.545 16.545 0 0 0 131 61.85 Q 133.2 64.4 136.15 65.8 A 14.679 14.679 0 0 0 141.949 67.188 A 17.126 17.126 0 0 0 142.6 67.2 Q 146.4 67.2 149.8 65.4 Q 153.2 63.6 155.5 60.7 Z M 585.6 60.7 L 585.6 32.8 Q 582.9 30.9 579.65 29.75 Q 576.4 28.6 572.8 28.6 A 16.142 16.142 0 0 0 568.333 29.203 A 14.448 14.448 0 0 0 566.2 30 Q 563.2 31.4 561.05 33.95 A 17.393 17.393 0 0 0 558.543 37.953 A 21.502 21.502 0 0 0 557.7 40.1 A 23.426 23.426 0 0 0 556.617 45.381 A 28.621 28.621 0 0 0 556.5 48 A 25.723 25.723 0 0 0 556.969 52.996 A 21.781 21.781 0 0 0 557.7 55.75 A 19.283 19.283 0 0 0 559.576 59.774 A 16.545 16.545 0 0 0 561.1 61.85 Q 563.3 64.4 566.25 65.8 A 14.679 14.679 0 0 0 572.049 67.188 A 17.126 17.126 0 0 0 572.7 67.2 Q 576.5 67.2 579.9 65.4 Q 583.3 63.6 585.6 60.7 Z M 874.8 60 L 874.8 32.8 A 27.745 27.745 0 0 0 871.822 31.006 A 35.046 35.046 0 0 0 869.5 29.9 Q 866.5 28.6 862.3 28.6 Q 859.2 28.6 856.35 29.85 Q 853.5 31.1 851.3 33.5 A 16.883 16.883 0 0 0 848.651 37.394 A 20.757 20.757 0 0 0 847.8 39.35 Q 846.5 42.8 846.5 47.3 A 24.492 24.492 0 0 0 846.867 51.629 A 19.399 19.399 0 0 0 847.8 55.05 A 19.805 19.805 0 0 0 849.719 58.883 A 16.804 16.804 0 0 0 851.3 60.95 Q 853.5 63.4 856.35 64.7 Q 859.2 66 862.4 66 A 15.276 15.276 0 0 0 866.978 65.332 A 13.606 13.606 0 0 0 869.6 64.2 A 20.855 20.855 0 0 0 872.581 62.184 A 16.309 16.309 0 0 0 874.8 60 Z M 756.708 11.307 A 6.059 6.059 0 0 0 761.1 13.1 A 8.264 8.264 0 0 0 762.756 12.942 A 5.661 5.661 0 0 0 765.7 11.4 A 5.588 5.588 0 0 0 767.171 8.768 A 7.987 7.987 0 0 0 767.4 6.8 A 7.26 7.26 0 0 0 767.4 6.719 A 6.06 6.06 0 0 0 765.55 2.35 A 7.395 7.395 0 0 0 765.492 2.293 A 6.059 6.059 0 0 0 761.1 0.5 A 8.264 8.264 0 0 0 759.444 0.658 A 5.661 5.661 0 0 0 756.5 2.2 A 5.588 5.588 0 0 0 755.029 4.832 A 7.987 7.987 0 0 0 754.8 6.8 A 7.26 7.26 0 0 0 754.8 6.881 A 6.06 6.06 0 0 0 756.65 11.25 A 7.395 7.395 0 0 0 756.708 11.307 Z" vector-effect="non-scaling-stroke"/></g></svg>
