<svg width="845" height="75.201" viewBox="0 0 845 75.201" xmlns="http://www.w3.org/2000/svg"><g id="svgGroup" stroke-linecap="round" fill-rule="evenodd" font-size="9pt" stroke="#000" stroke-width="0.25mm" fill="none" style="stroke:#000;stroke-width:0.25mm;fill:none"><path d="M 0 68.1 L 4.8 60.1 Q 8.4 63.1 12.9 65 A 23.348 23.348 0 0 0 18.27 66.51 A 32.118 32.118 0 0 0 23.4 66.9 A 27.981 27.981 0 0 0 27.947 66.554 Q 30.37 66.154 32.331 65.293 A 13.701 13.701 0 0 0 34.8 63.9 Q 38.848 61.008 38.995 56.166 A 12.116 12.116 0 0 0 39 55.8 Q 39 53.7 38.4 51.9 A 7.214 7.214 0 0 0 37.438 50.03 Q 36.87 49.223 36.05 48.45 Q 34.779 47.251 32.768 46.052 A 33.644 33.644 0 0 0 31.15 45.15 A 51.221 51.221 0 0 0 28.647 43.932 Q 26.203 42.817 23 41.6 Q 18.866 39.992 15.698 38.414 A 55.037 55.037 0 0 1 13.85 37.45 A 29.576 29.576 0 0 1 10.846 35.58 Q 9.094 34.328 7.8 32.95 A 15.293 15.293 0 0 1 5.187 29.214 A 13.936 13.936 0 0 1 4.5 27.55 A 18.339 18.339 0 0 1 3.705 24.069 A 24.866 24.866 0 0 1 3.5 20.8 Q 3.5 17.1 5.05 13.8 A 15.944 15.944 0 0 1 9.091 8.517 A 18.684 18.684 0 0 1 9.65 8.05 A 20.424 20.424 0 0 1 13.765 5.511 A 26.899 26.899 0 0 1 17.15 4.2 A 29.368 29.368 0 0 1 22.231 3.108 A 39.853 39.853 0 0 1 27.3 2.8 A 52.816 52.816 0 0 1 33.001 3.093 A 38.808 38.808 0 0 1 38.4 4.05 Q 43.3 5.3 48.1 7.6 L 44.6 15.7 A 31.496 31.496 0 0 0 40.474 13.681 A 41.686 41.686 0 0 0 36.65 12.35 Q 32.1 11 27.1 11 A 27.711 27.711 0 0 0 23.07 11.275 Q 19.253 11.837 16.7 13.55 A 9.496 9.496 0 0 0 14.479 15.571 A 7.461 7.461 0 0 0 12.9 20.3 A 12.395 12.395 0 0 0 13.029 22.132 A 9.192 9.192 0 0 0 13.45 23.85 A 5.878 5.878 0 0 0 14.207 25.281 Q 14.627 25.874 15.219 26.451 A 11.219 11.219 0 0 0 15.65 26.85 Q 16.846 27.901 18.725 28.978 A 34.591 34.591 0 0 0 20.25 29.8 A 46.93 46.93 0 0 0 22.509 30.867 Q 24.884 31.919 28.1 33.1 A 89.068 89.068 0 0 1 32.515 34.904 Q 35.525 36.234 37.9 37.6 A 33.937 33.937 0 0 1 40.99 39.594 Q 42.492 40.69 43.667 41.847 A 19.029 19.029 0 0 1 44.3 42.5 A 17.193 17.193 0 0 1 46.724 45.817 A 14.737 14.737 0 0 1 47.75 48.1 A 18.723 18.723 0 0 1 48.697 52.509 A 22.892 22.892 0 0 1 48.8 54.7 Q 48.8 59.6 46.9 63.4 Q 45 67.2 41.65 69.85 A 21.611 21.611 0 0 1 36.472 72.852 A 26.983 26.983 0 0 1 33.6 73.85 A 34.832 34.832 0 0 1 26.759 75.068 A 41.937 41.937 0 0 1 23.4 75.2 Q 16.1 75.2 10.1 73.25 A 38.206 38.206 0 0 1 4.733 71.068 A 28.433 28.433 0 0 1 0 68.1 Z M 402.7 68.1 L 407.5 60.1 Q 411.1 63.1 415.6 65 A 23.348 23.348 0 0 0 420.97 66.51 A 32.118 32.118 0 0 0 426.1 66.9 A 27.981 27.981 0 0 0 430.647 66.554 Q 433.07 66.154 435.031 65.293 A 13.701 13.701 0 0 0 437.5 63.9 Q 441.548 61.008 441.695 56.166 A 12.116 12.116 0 0 0 441.7 55.8 Q 441.7 53.7 441.1 51.9 A 7.214 7.214 0 0 0 440.138 50.03 Q 439.57 49.223 438.75 48.45 Q 437.479 47.251 435.468 46.052 A 33.644 33.644 0 0 0 433.85 45.15 A 51.221 51.221 0 0 0 431.347 43.932 Q 428.903 42.817 425.7 41.6 Q 421.566 39.992 418.398 38.414 A 55.037 55.037 0 0 1 416.55 37.45 A 29.576 29.576 0 0 1 413.546 35.58 Q 411.794 34.328 410.5 32.95 A 15.293 15.293 0 0 1 407.887 29.214 A 13.936 13.936 0 0 1 407.2 27.55 A 18.339 18.339 0 0 1 406.405 24.069 A 24.866 24.866 0 0 1 406.2 20.8 Q 406.2 17.1 407.75 13.8 A 15.944 15.944 0 0 1 411.791 8.517 A 18.684 18.684 0 0 1 412.35 8.05 A 20.424 20.424 0 0 1 416.465 5.511 A 26.899 26.899 0 0 1 419.85 4.2 A 29.368 29.368 0 0 1 424.931 3.108 A 39.853 39.853 0 0 1 430 2.8 A 52.816 52.816 0 0 1 435.701 3.093 A 38.808 38.808 0 0 1 441.1 4.05 Q 446 5.3 450.8 7.6 L 447.3 15.7 A 31.496 31.496 0 0 0 443.174 13.681 A 41.686 41.686 0 0 0 439.35 12.35 Q 434.8 11 429.8 11 A 27.711 27.711 0 0 0 425.77 11.275 Q 421.953 11.837 419.4 13.55 A 9.496 9.496 0 0 0 417.179 15.571 A 7.461 7.461 0 0 0 415.6 20.3 A 12.395 12.395 0 0 0 415.729 22.132 A 9.192 9.192 0 0 0 416.15 23.85 A 5.878 5.878 0 0 0 416.907 25.281 Q 417.327 25.874 417.919 26.451 A 11.219 11.219 0 0 0 418.35 26.85 Q 419.546 27.901 421.425 28.978 A 34.591 34.591 0 0 0 422.95 29.8 A 46.93 46.93 0 0 0 425.209 30.867 Q 427.584 31.919 430.8 33.1 A 89.068 89.068 0 0 1 435.215 34.904 Q 438.225 36.234 440.6 37.6 A 33.937 33.937 0 0 1 443.69 39.594 Q 445.192 40.69 446.367 41.847 A 19.029 19.029 0 0 1 447 42.5 A 17.193 17.193 0 0 1 449.424 45.817 A 14.737 14.737 0 0 1 450.45 48.1 A 18.723 18.723 0 0 1 451.397 52.509 A 22.892 22.892 0 0 1 451.5 54.7 Q 451.5 59.6 449.6 63.4 Q 447.7 67.2 444.35 69.85 A 21.611 21.611 0 0 1 439.172 72.852 A 26.983 26.983 0 0 1 436.3 73.85 A 34.832 34.832 0 0 1 429.459 75.068 A 41.937 41.937 0 0 1 426.1 75.2 Q 418.8 75.2 412.8 73.25 A 38.206 38.206 0 0 1 407.433 71.068 A 28.433 28.433 0 0 1 402.7 68.1 Z M 70.8 0 L 70.8 30.3 Q 73.6 26.2 77.85 23.5 A 17.126 17.126 0 0 1 84.39 21.077 A 22.699 22.699 0 0 1 88 20.8 A 23.225 23.225 0 0 1 93.065 21.318 Q 98.159 22.456 101.15 26.1 Q 105.275 31.126 105.488 39.209 A 33.764 33.764 0 0 1 105.5 40.1 L 105.5 74 L 96.5 74 L 96.5 41.1 Q 96.5 36.803 95.051 33.841 A 10.747 10.747 0 0 0 93.95 32.05 Q 91.4 28.7 86.6 28.7 Q 84.3 28.7 82.05 29.55 Q 79.8 30.4 77.8 31.9 A 26.152 26.152 0 0 0 74.51 34.847 A 29.423 29.423 0 0 0 74 35.4 Q 72.2 37.4 70.8 39.6 L 70.8 74 L 61.8 74 L 61.8 0 L 70.8 0 Z M 330.6 37.1 L 347.1 52.8 A 20.042 20.042 0 0 0 348.623 48.974 A 22.207 22.207 0 0 0 348.7 48.7 Q 349.3 46.5 349.75 44.3 Q 350.2 42.1 350.85 40.05 A 12.037 12.037 0 0 1 351.988 37.494 A 10.588 10.588 0 0 1 352.7 36.45 A 8.225 8.225 0 0 1 354.894 34.497 A 10.227 10.227 0 0 1 355.9 33.95 Q 357.9 33 361.1 33 L 363.3 40.1 Q 361.76 40.1 360.677 40.557 A 4.179 4.179 0 0 0 359.95 40.95 Q 358.7 41.8 357.95 43.2 A 12.205 12.205 0 0 0 357.201 44.917 A 16.075 16.075 0 0 0 356.75 46.45 Q 356.3 48.3 355.8 50.3 Q 355.3 52.3 354.65 54.3 Q 354 56.3 352.9 58 L 364.7 68.8 L 359.1 74.8 L 348.5 64.8 A 36.336 36.336 0 0 1 341.918 70.758 A 32.68 32.68 0 0 1 339.4 72.35 A 20.677 20.677 0 0 1 333.508 74.553 Q 330.992 75.099 328.089 75.184 A 37.065 37.065 0 0 1 327 75.2 Q 322.5 75.2 318.5 73.85 Q 314.5 72.5 311.5 70 Q 308.5 67.5 306.75 64 A 16.703 16.703 0 0 1 305.062 57.784 A 20.097 20.097 0 0 1 305 56.2 Q 305 49.9 308.2 44.8 A 21.232 21.232 0 0 1 311.804 40.529 Q 313.663 38.808 316.095 37.223 A 44.079 44.079 0 0 1 318.8 35.6 Q 315.891 32.461 314.154 29.644 A 23.356 23.356 0 0 1 313.2 27.95 A 16.276 16.276 0 0 1 311.697 23.294 A 21.986 21.986 0 0 1 311.4 19.6 A 18.152 18.152 0 0 1 311.977 14.96 A 16.121 16.121 0 0 1 312.65 12.95 Q 313.9 9.9 316.2 7.65 Q 318.5 5.4 321.75 4.1 A 17.974 17.974 0 0 1 326.145 2.983 A 23.109 23.109 0 0 1 329.1 2.8 Q 333.1 2.8 336.25 4 A 17.091 17.091 0 0 1 339.477 5.619 A 14.155 14.155 0 0 1 341.55 7.25 Q 343.7 9.3 344.85 12 A 14.598 14.598 0 0 1 345.999 17.607 A 16.617 16.617 0 0 1 346 17.8 A 18.41 18.41 0 0 1 345.132 23.554 A 15.743 15.743 0 0 1 342.3 28.7 A 23.092 23.092 0 0 1 338.92 31.991 Q 335.6 34.662 330.6 37.1 Z M 512.9 67.5 L 511 74.5 Q 506.2 74.5 503.4 72.6 A 9.552 9.552 0 0 1 499.928 68.287 A 12.398 12.398 0 0 1 499.5 67.1 Q 496 70.7 491.45 72.95 Q 486.9 75.2 481.5 75.2 Q 478.1 75.2 474.95 74.15 Q 471.8 73.1 469.35 70.8 Q 466.9 68.5 465.45 64.8 Q 464 61.1 464 55.8 L 464 22 L 473 22 L 473 54.6 Q 473 58.603 474.098 61.379 A 10.233 10.233 0 0 0 475.55 63.95 A 8.189 8.189 0 0 0 480.329 66.898 A 12.854 12.854 0 0 0 483.2 67.2 Q 487.4 67.2 491.2 65.55 Q 495 63.9 498 61.1 L 498 22 L 507 22 L 507 60.5 A 15.822 15.822 0 0 0 507.058 61.897 Q 507.17 63.159 507.5 64.05 A 7.037 7.037 0 0 0 507.936 65.013 Q 508.218 65.522 508.561 65.906 A 3.906 3.906 0 0 0 508.8 66.15 Q 509.6 66.9 510.7 67.2 Q 511.8 67.5 512.9 67.5 Z M 579.8 69.8 L 583.6 62.3 A 17.402 17.402 0 0 0 586.952 64.603 A 23.322 23.322 0 0 0 590.15 66 A 24.791 24.791 0 0 0 597.622 67.383 A 28.367 28.367 0 0 0 598.6 67.4 Q 603.992 67.4 606.835 65.685 A 7.738 7.738 0 0 0 607.05 65.55 Q 609.9 63.7 609.9 60.8 A 7.211 7.211 0 0 0 609.516 58.432 A 6.796 6.796 0 0 0 609.35 58 A 5.377 5.377 0 0 0 608.637 56.803 Q 608.249 56.304 607.719 55.821 A 10.185 10.185 0 0 0 607.35 55.5 A 12.59 12.59 0 0 0 606.115 54.607 Q 605.431 54.169 604.602 53.737 A 27.422 27.422 0 0 0 603.4 53.15 Q 601.72 52.377 599.364 51.492 A 115.589 115.589 0 0 0 596.9 50.6 A 47.106 47.106 0 0 1 592.646 48.945 Q 588.375 47.022 585.9 44.65 A 11.347 11.347 0 0 1 582.669 38.736 A 16.941 16.941 0 0 1 582.3 35.1 Q 582.3 32.1 583.65 29.5 A 13.242 13.242 0 0 1 586.636 25.704 A 15.791 15.791 0 0 1 587.55 24.95 A 17.33 17.33 0 0 1 590.966 22.934 A 22.664 22.664 0 0 1 593.75 21.9 A 24.963 24.963 0 0 1 597.892 21.046 A 34.316 34.316 0 0 1 602.1 20.8 Q 606.752 20.8 610.364 21.674 A 24.48 24.48 0 0 1 611.05 21.85 A 38.541 38.541 0 0 1 615.357 23.291 A 31.513 31.513 0 0 1 618 24.5 L 615.5 31.9 Q 612.8 30.3 609.35 29.3 A 25.024 25.024 0 0 0 604.867 28.453 A 31.837 31.837 0 0 0 601.7 28.3 A 20.632 20.632 0 0 0 598.763 28.495 Q 595.677 28.94 593.8 30.4 A 9.322 9.322 0 0 0 592.442 31.673 Q 591.74 32.492 591.405 33.365 A 4.529 4.529 0 0 0 591.1 35 A 5.568 5.568 0 0 0 591.294 36.488 A 4.93 4.93 0 0 0 591.55 37.2 Q 591.924 38.032 592.817 38.794 A 7.753 7.753 0 0 0 593.2 39.1 Q 594.4 40 596.4 40.9 A 38.11 38.11 0 0 0 598.041 41.589 Q 599.525 42.175 601.4 42.8 Q 605.152 44.102 608.024 45.432 A 45.049 45.049 0 0 1 609.7 46.25 A 27.212 27.212 0 0 1 612.415 47.841 Q 613.715 48.713 614.741 49.659 A 15.68 15.68 0 0 1 615.2 50.1 A 13.836 13.836 0 0 1 617.138 52.502 A 11.394 11.394 0 0 1 618.2 54.65 A 14.613 14.613 0 0 1 618.994 58.102 A 18.255 18.255 0 0 1 619.1 60.1 A 14.031 14.031 0 0 1 618.571 64.009 A 12.235 12.235 0 0 1 617.6 66.4 Q 616.1 69.2 613.4 71.15 A 17.953 17.953 0 0 1 609.894 73.104 A 23.774 23.774 0 0 1 606.85 74.15 Q 603 75.2 598.3 75.2 A 41.103 41.103 0 0 1 592.793 74.848 A 30.514 30.514 0 0 1 587.6 73.7 A 30.72 30.72 0 0 1 583.794 72.215 Q 581.825 71.283 580.244 70.133 A 18.536 18.536 0 0 1 579.8 69.8 Z M 524.9 74 L 524.9 0 L 533.9 0 L 533.9 27.4 A 17.447 17.447 0 0 1 534.871 26.418 Q 535.385 25.936 535.988 25.436 A 29.965 29.965 0 0 1 536.4 25.1 A 19.429 19.429 0 0 1 539.069 23.315 A 22.041 22.041 0 0 1 539.75 22.95 A 18.788 18.788 0 0 1 542.238 21.899 A 23.04 23.04 0 0 1 543.9 21.4 A 18.56 18.56 0 0 1 547.171 20.865 A 22.623 22.623 0 0 1 548.9 20.8 Q 553.4 20.8 557.55 22.6 Q 561.7 24.4 564.85 27.8 A 23.706 23.706 0 0 1 568.446 32.952 A 29.885 29.885 0 0 1 569.9 36.2 Q 571.8 41.2 571.8 47.5 A 33.315 33.315 0 0 1 571.113 54.388 A 27.75 27.75 0 0 1 569.8 58.8 A 30.149 30.149 0 0 1 566.792 64.609 A 25.829 25.829 0 0 1 564.5 67.55 Q 561.2 71.2 556.95 73.2 A 20.584 20.584 0 0 1 550.354 75.09 A 19.225 19.225 0 0 1 548.3 75.2 A 22.394 22.394 0 0 1 540.377 73.805 A 21.462 21.462 0 0 1 539.85 73.6 Q 535.9 72 533.3 69.7 L 533.3 74 L 524.9 74 Z M 743.2 74 L 743.2 0 L 752.2 0 L 752.2 27.4 A 17.447 17.447 0 0 1 753.171 26.418 Q 753.685 25.936 754.288 25.436 A 29.965 29.965 0 0 1 754.7 25.1 A 19.429 19.429 0 0 1 757.369 23.315 A 22.041 22.041 0 0 1 758.05 22.95 A 18.788 18.788 0 0 1 760.538 21.899 A 23.04 23.04 0 0 1 762.2 21.4 A 18.56 18.56 0 0 1 765.471 20.865 A 22.623 22.623 0 0 1 767.2 20.8 Q 771.7 20.8 775.85 22.6 Q 780 24.4 783.15 27.8 A 23.706 23.706 0 0 1 786.746 32.952 A 29.885 29.885 0 0 1 788.2 36.2 Q 790.1 41.2 790.1 47.5 A 33.315 33.315 0 0 1 789.413 54.388 A 27.75 27.75 0 0 1 788.1 58.8 A 30.149 30.149 0 0 1 785.092 64.609 A 25.829 25.829 0 0 1 782.8 67.55 Q 779.5 71.2 775.25 73.2 A 20.584 20.584 0 0 1 768.654 75.09 A 19.225 19.225 0 0 1 766.6 75.2 A 22.394 22.394 0 0 1 758.677 73.805 A 21.462 21.462 0 0 1 758.15 73.6 Q 754.2 72 751.6 69.7 L 751.6 74 L 743.2 74 Z M 261.7 51.7 L 225.3 51.7 A 24.088 24.088 0 0 0 226.439 56.725 Q 227.775 60.538 230.4 63.1 Q 234.6 67.2 241.5 67.2 Q 246 67.2 249.6 66.25 Q 253.2 65.3 256.5 63.8 L 258.6 71.5 A 35.406 35.406 0 0 1 253.781 73.342 A 44.267 44.267 0 0 1 250.5 74.2 A 40.711 40.711 0 0 1 245.408 74.98 A 54.607 54.607 0 0 1 240.4 75.2 A 29.178 29.178 0 0 1 234.604 74.647 A 23.608 23.608 0 0 1 230.3 73.35 Q 225.8 71.5 222.65 68.05 A 22.127 22.127 0 0 1 219.004 62.55 A 27.574 27.574 0 0 1 217.8 59.55 A 31.581 31.581 0 0 1 216.449 53.593 A 42.813 42.813 0 0 1 216.1 48 A 34.878 34.878 0 0 1 216.904 40.403 A 30.597 30.597 0 0 1 217.8 37.2 A 27.699 27.699 0 0 1 220.614 31.251 A 24.152 24.152 0 0 1 222.6 28.55 Q 225.7 24.9 230 22.85 Q 234.3 20.8 239.6 20.8 A 27.908 27.908 0 0 1 244.504 21.211 A 20.619 20.619 0 0 1 249.4 22.7 Q 253.6 24.6 256.4 27.9 Q 259.2 31.2 260.6 35.6 A 30.348 30.348 0 0 1 261.997 44.442 A 34.055 34.055 0 0 1 262 44.9 A 75.204 75.204 0 0 1 261.709 51.597 A 69.426 69.426 0 0 1 261.7 51.7 Z M 844.7 51.7 L 808.3 51.7 A 24.088 24.088 0 0 0 809.439 56.725 Q 810.775 60.538 813.4 63.1 Q 817.6 67.2 824.5 67.2 Q 829 67.2 832.6 66.25 Q 836.2 65.3 839.5 63.8 L 841.6 71.5 A 35.406 35.406 0 0 1 836.781 73.342 A 44.267 44.267 0 0 1 833.5 74.2 A 40.711 40.711 0 0 1 828.408 74.98 A 54.607 54.607 0 0 1 823.4 75.2 A 29.178 29.178 0 0 1 817.604 74.647 A 23.608 23.608 0 0 1 813.3 73.35 Q 808.8 71.5 805.65 68.05 A 22.127 22.127 0 0 1 802.004 62.55 A 27.574 27.574 0 0 1 800.8 59.55 A 31.581 31.581 0 0 1 799.449 53.593 A 42.813 42.813 0 0 1 799.1 48 A 34.878 34.878 0 0 1 799.904 40.403 A 30.597 30.597 0 0 1 800.8 37.2 A 27.699 27.699 0 0 1 803.614 31.251 A 24.152 24.152 0 0 1 805.6 28.55 Q 808.7 24.9 813 22.85 Q 817.3 20.8 822.6 20.8 A 27.908 27.908 0 0 1 827.504 21.211 A 20.619 20.619 0 0 1 832.4 22.7 Q 836.6 24.6 839.4 27.9 Q 842.2 31.2 843.6 35.6 A 30.348 30.348 0 0 1 844.997 44.442 A 34.055 34.055 0 0 1 845 44.9 A 75.204 75.204 0 0 1 844.709 51.597 A 69.426 69.426 0 0 1 844.7 51.7 Z M 667 23.9 L 664.3 31.5 A 35.532 35.532 0 0 0 661.669 30.352 Q 660.318 29.83 659.066 29.494 A 21.586 21.586 0 0 0 658.9 29.45 Q 656.4 28.8 653.3 28.8 Q 649.8 28.8 646.75 30.1 Q 643.7 31.4 641.5 33.85 A 16.788 16.788 0 0 0 638.828 37.914 A 20.581 20.581 0 0 0 638.05 39.8 A 20.918 20.918 0 0 0 637.039 44.054 A 28.088 28.088 0 0 0 636.8 47.8 A 25.667 25.667 0 0 0 637.284 52.865 A 21.996 21.996 0 0 0 637.95 55.4 A 20.488 20.488 0 0 0 640.037 59.902 A 18.248 18.248 0 0 0 641.2 61.55 Q 643.3 64.2 646.2 65.7 Q 649.1 67.2 652.7 67.2 Q 656.5 67.2 659.2 66.4 A 25.095 25.095 0 0 0 661.977 65.385 Q 663.347 64.796 664.805 64.006 A 41.473 41.473 0 0 0 665 63.9 L 667.8 71.5 Q 664.6 73.2 660.8 74.2 Q 657.119 75.169 652.405 75.199 A 47.525 47.525 0 0 1 652.1 75.2 A 26.988 26.988 0 0 1 646.187 74.576 A 22.271 22.271 0 0 1 642 73.2 Q 637.5 71.2 634.3 67.6 A 24.641 24.641 0 0 1 630.121 60.973 A 29.254 29.254 0 0 1 629.35 59 A 31.204 31.204 0 0 1 627.771 51.652 A 38.153 38.153 0 0 1 627.6 48 A 31.882 31.882 0 0 1 628.84 39.032 A 29.616 29.616 0 0 1 629.35 37.45 A 25.969 25.969 0 0 1 633.599 29.745 A 24.654 24.654 0 0 1 634.4 28.8 Q 637.7 25.1 642.35 22.95 A 23.318 23.318 0 0 1 649.628 20.97 A 28.889 28.889 0 0 1 652.8 20.8 A 42.637 42.637 0 0 1 656.383 20.942 Q 658.692 21.137 660.6 21.6 Q 663.9 22.4 667 23.9 Z M 156.6 26.2 L 156.6 22 L 164.8 22 L 164.8 61.4 A 12.15 12.15 0 0 0 164.902 63.036 Q 165.234 65.47 166.65 66.35 Q 168.5 67.5 170.7 67.5 L 168.8 74.5 A 17.722 17.722 0 0 1 164.535 74.028 Q 158.898 72.628 157.303 67.08 A 13.59 13.59 0 0 1 157.2 66.7 Q 156 68.3 154.45 69.85 A 18.204 18.204 0 0 1 151.156 72.444 A 20.291 20.291 0 0 1 150.9 72.6 A 17.462 17.462 0 0 1 147.767 74.067 A 20.704 20.704 0 0 1 146.4 74.5 A 18.765 18.765 0 0 1 143.08 75.102 A 23.457 23.457 0 0 1 140.9 75.2 Q 136 75.2 131.75 73.3 Q 127.5 71.4 124.35 67.9 A 24.891 24.891 0 0 1 120.493 62.12 A 30.206 30.206 0 0 1 119.35 59.45 Q 117.5 54.5 117.5 48.3 Q 117.5 42.5 119.3 37.45 A 27.784 27.784 0 0 1 122.46 31.144 A 24.797 24.797 0 0 1 124.35 28.7 Q 127.6 25 132.15 22.9 A 23.124 23.124 0 0 1 140.929 20.825 A 27.082 27.082 0 0 1 142.1 20.8 A 22.584 22.584 0 0 1 146.894 21.29 A 18.703 18.703 0 0 1 150.25 22.35 A 26.002 26.002 0 0 1 154.537 24.644 A 22.103 22.103 0 0 1 156.6 26.2 Z M 213.6 21.4 L 210.9 30.7 A 9.763 9.763 0 0 0 208.755 30.088 Q 207.659 29.9 206.4 29.9 Q 203.6 29.9 200.95 31.1 A 13.202 13.202 0 0 0 196.838 34.049 A 15.59 15.59 0 0 0 196.25 34.7 Q 194.261 37.029 193.025 40.628 A 26.039 26.039 0 0 0 192.95 40.85 A 22.895 22.895 0 0 0 192.053 44.662 Q 191.766 46.554 191.712 48.697 A 40 40 0 0 0 191.7 49.7 L 191.7 74 L 182.7 74 L 182.7 22 L 191.4 22 L 191.4 33.3 Q 192.3 30.9 193.8 28.6 Q 195.3 26.3 197.35 24.6 A 16.676 16.676 0 0 1 201.191 22.23 A 19.32 19.32 0 0 1 202.1 21.85 Q 204.8 20.8 208.1 20.8 Q 209.6 20.8 211.05 20.95 A 19.695 19.695 0 0 1 212.252 21.11 Q 212.844 21.209 213.364 21.338 A 11.443 11.443 0 0 1 213.6 21.4 Z M 709.2 21.4 L 706.5 30.7 A 9.763 9.763 0 0 0 704.355 30.088 Q 703.259 29.9 702 29.9 Q 699.2 29.9 696.55 31.1 A 13.202 13.202 0 0 0 692.438 34.049 A 15.59 15.59 0 0 0 691.85 34.7 Q 689.861 37.029 688.625 40.628 A 26.039 26.039 0 0 0 688.55 40.85 A 22.895 22.895 0 0 0 687.653 44.662 Q 687.366 46.554 687.312 48.697 A 40 40 0 0 0 687.3 49.7 L 687.3 74 L 678.3 74 L 678.3 22 L 687 22 L 687 33.3 Q 687.9 30.9 689.4 28.6 Q 690.9 26.3 692.95 24.6 A 16.676 16.676 0 0 1 696.791 22.23 A 19.32 19.32 0 0 1 697.7 21.85 Q 700.4 20.8 703.7 20.8 Q 705.2 20.8 706.65 20.95 A 19.695 19.695 0 0 1 707.852 21.11 Q 708.444 21.209 708.964 21.338 A 11.443 11.443 0 0 1 709.2 21.4 Z M 727.2 22 L 727.2 74 L 718.2 74 L 718.2 22 L 727.2 22 Z M 155.8 60.7 L 155.8 32.8 Q 153.1 30.9 149.85 29.75 Q 146.6 28.6 143 28.6 A 16.142 16.142 0 0 0 138.533 29.203 A 14.448 14.448 0 0 0 136.4 30 Q 133.4 31.4 131.25 33.95 A 17.393 17.393 0 0 0 128.743 37.953 A 21.502 21.502 0 0 0 127.9 40.1 A 23.426 23.426 0 0 0 126.817 45.381 A 28.621 28.621 0 0 0 126.7 48 A 25.723 25.723 0 0 0 127.169 52.996 A 21.781 21.781 0 0 0 127.9 55.75 A 19.283 19.283 0 0 0 129.776 59.774 A 16.545 16.545 0 0 0 131.3 61.85 Q 133.5 64.4 136.45 65.8 A 14.679 14.679 0 0 0 142.249 67.188 A 17.126 17.126 0 0 0 142.9 67.2 Q 146.7 67.2 150.1 65.4 Q 153.5 63.6 155.8 60.7 Z M 533.9 35.4 L 533.9 63.2 A 17.99 17.99 0 0 0 537.53 65.385 A 21.802 21.802 0 0 0 539.3 66.1 A 19.462 19.462 0 0 0 545.464 67.196 A 22.039 22.039 0 0 0 545.9 67.2 A 16.26 16.26 0 0 0 551.718 66.166 A 15.526 15.526 0 0 0 552.6 65.8 Q 555.7 64.4 557.9 61.85 A 17.95 17.95 0 0 0 560.642 57.514 A 21.678 21.678 0 0 0 561.35 55.75 A 21.806 21.806 0 0 0 562.422 50.996 A 27.857 27.857 0 0 0 562.6 47.8 Q 562.6 43.3 561.35 39.75 Q 560.1 36.2 557.95 33.7 Q 555.8 31.2 552.95 29.9 Q 550.1 28.6 546.9 28.6 A 14.741 14.741 0 0 0 541.273 29.663 A 14.054 14.054 0 0 0 539.15 30.75 Q 535.7 32.9 533.9 35.4 Z M 752.2 35.4 L 752.2 63.2 A 17.99 17.99 0 0 0 755.83 65.385 A 21.802 21.802 0 0 0 757.6 66.1 A 19.462 19.462 0 0 0 763.764 67.196 A 22.039 22.039 0 0 0 764.2 67.2 A 16.26 16.26 0 0 0 770.018 66.166 A 15.526 15.526 0 0 0 770.9 65.8 Q 774 64.4 776.2 61.85 A 17.95 17.95 0 0 0 778.942 57.514 A 21.678 21.678 0 0 0 779.65 55.75 A 21.806 21.806 0 0 0 780.722 50.996 A 27.857 27.857 0 0 0 780.9 47.8 Q 780.9 43.3 779.65 39.75 Q 778.4 36.2 776.25 33.7 Q 774.1 31.2 771.25 29.9 Q 768.4 28.6 765.2 28.6 A 14.741 14.741 0 0 0 759.573 29.663 A 14.054 14.054 0 0 0 757.45 30.75 Q 754 32.9 752.2 35.4 Z M 343 59.3 L 323.3 40.4 Q 318.8 43.5 316.65 46.85 A 13.362 13.362 0 0 0 314.754 51.828 A 17.859 17.859 0 0 0 314.5 54.9 A 11.247 11.247 0 0 0 315.115 58.647 A 10.527 10.527 0 0 0 315.55 59.7 Q 316.6 61.9 318.45 63.55 Q 320.3 65.2 322.85 66.1 Q 325.4 67 328.4 67 Q 332.7 67 336.4 64.95 A 21.839 21.839 0 0 0 341.884 60.596 A 25.704 25.704 0 0 0 343 59.3 Z M 225.2 44.4 L 253.7 44.4 A 24.355 24.355 0 0 0 253.296 39.815 Q 252.8 37.231 251.696 35.207 A 12.422 12.422 0 0 0 249.9 32.7 A 12.488 12.488 0 0 0 242.939 28.924 A 18.395 18.395 0 0 0 239.4 28.6 Q 233.5 28.6 229.75 32.6 A 14.739 14.739 0 0 0 226.957 37.005 Q 226.132 38.961 225.652 41.361 A 32.287 32.287 0 0 0 225.2 44.4 Z M 808.2 44.4 L 836.7 44.4 A 24.355 24.355 0 0 0 836.296 39.815 Q 835.8 37.231 834.696 35.207 A 12.422 12.422 0 0 0 832.9 32.7 A 12.488 12.488 0 0 0 825.939 28.924 A 18.395 18.395 0 0 0 822.4 28.6 Q 816.5 28.6 812.75 32.6 A 14.739 14.739 0 0 0 809.957 37.005 Q 809.132 38.961 808.652 41.361 A 32.287 32.287 0 0 0 808.2 44.4 Z M 319.7 19.5 Q 319.7 22.9 321.25 26 Q 322.526 28.551 325.054 31.238 A 36.103 36.103 0 0 0 326.2 32.4 A 49.336 49.336 0 0 0 329.615 30.504 Q 333.272 28.265 335.1 26.05 Q 337.7 22.9 337.7 18.7 Q 337.7 15.1 335.3 12.55 A 7.974 7.974 0 0 0 330.401 10.097 A 11.214 11.214 0 0 0 328.9 10 A 9.702 9.702 0 0 0 325.562 10.554 A 8.538 8.538 0 0 0 322.3 12.7 A 9.211 9.211 0 0 0 319.731 18.62 A 12.246 12.246 0 0 0 319.7 19.5 Z M 718.308 11.307 A 6.059 6.059 0 0 0 722.7 13.1 A 8.264 8.264 0 0 0 724.356 12.942 A 5.661 5.661 0 0 0 727.3 11.4 A 5.588 5.588 0 0 0 728.771 8.768 A 7.987 7.987 0 0 0 729 6.8 A 7.26 7.26 0 0 0 729 6.719 A 6.06 6.06 0 0 0 727.15 2.35 A 7.395 7.395 0 0 0 727.092 2.293 A 6.059 6.059 0 0 0 722.7 0.5 A 8.264 8.264 0 0 0 721.044 0.658 A 5.661 5.661 0 0 0 718.1 2.2 A 5.588 5.588 0 0 0 716.629 4.832 A 7.987 7.987 0 0 0 716.4 6.8 A 7.26 7.26 0 0 0 716.4 6.881 A 6.06 6.06 0 0 0 718.25 11.25 A 7.395 7.395 0 0 0 718.308 11.307 Z" vector-effect="non-scaling-stroke"/></g></svg>
